<svg width="50" height="50" viewBox="0 0 50 50" fill="none" xmlns="http://www.w3.org/2000/svg">
<circle cx="24.5" cy="24.5" r="22.5" fill="white"/>
<g clip-path="url(#clip0)">
<path d="M19.6685 19.3645C19.6685 17.059 18.1 17.059 18.1 17.059H17.2695H11.647V22.006H17.7C18.746 22.0055 19.6685 21.671 19.6685 19.3645Z" fill="black"/>
<path d="M18.1005 25.423H11.647V31.348H17.8025C18.7285 31.3215 20.4375 31.0315 20.4375 28.468C20.4375 25.392 18.1005 25.423 18.1005 25.423Z" fill="black"/>
<path d="M34.6215 22.0055C31.197 22.0055 30.7195 25.423 30.7195 25.423H38.002C38.0025 25.423 38.046 22.0055 34.6215 22.0055Z" fill="black"/>
<path d="M24.4375 0C10.941 0 0 10.9415 0 24.4375C0 37.9335 10.941 48.875 24.4375 48.875C37.934 48.875 48.875 37.9335 48.875 24.4375C48.875 10.9415 37.934 0 24.4375 0ZM29.7655 14.424H38.9125V17.154H29.7655V14.424ZM25.1425 28.743C25.1425 35.5095 18.1005 35.287 18.1005 35.287H11.647H11.4575H6.564V13.118H11.4575H11.647H18.1C21.606 13.118 24.3735 15.0535 24.3735 19.0205C24.3735 22.988 20.9905 23.2395 20.9905 23.2395C25.45 23.2395 25.1425 28.743 25.1425 28.743ZM34.665 32.2395C38.35 32.2395 38.2195 29.8545 38.2195 29.8545H42.121C42.121 36.184 34.535 35.7505 34.535 35.7505C25.4315 35.7505 26.017 27.2755 26.017 27.2755C26.017 27.2755 26.01 18.7585 34.534 18.7585C43.5075 18.7585 42.251 28.381 42.251 28.381H30.7635C30.7635 32.5005 34.665 32.2395 34.665 32.2395Z" fill="black"/>
</g>
<defs>
<clipPath id="clip0">
<rect width="48.875" height="48.875" fill="white"/>
</clipPath>
</defs>
</svg>
