<svg width="300" height="66" viewBox="0 0 300 66" fill="none" xmlns="http://www.w3.org/2000/svg">
<rect width="300" height="66" rx="20" fill="black"/>
<path d="M75.0422 24.152C76.8182 24.152 78.3702 24.504 79.6982 25.208C81.0262 25.912 82.0502 26.904 82.7702 28.184C83.5062 29.448 83.8742 30.912 83.8742 32.576C83.8742 34.224 83.5062 35.688 82.7702 36.968C82.0502 38.248 81.0182 39.24 79.6742 39.944C78.3462 40.648 76.8022 41 75.0422 41H68.7302V24.152H75.0422ZM74.7782 37.448C76.3302 37.448 77.5382 37.024 78.4022 36.176C79.2662 35.328 79.6982 34.128 79.6982 32.576C79.6982 31.024 79.2662 29.816 78.4022 28.952C77.5382 28.088 76.3302 27.656 74.7782 27.656H72.8342V37.448H74.7782ZM92.2637 41.192C90.9517 41.192 89.7677 40.912 88.7117 40.352C87.6717 39.792 86.8477 38.992 86.2397 37.952C85.6477 36.912 85.3517 35.696 85.3517 34.304C85.3517 32.928 85.6557 31.72 86.2637 30.68C86.8717 29.624 87.7037 28.816 88.7597 28.256C89.8157 27.696 90.9997 27.416 92.3117 27.416C93.6237 27.416 94.8077 27.696 95.8637 28.256C96.9197 28.816 97.7517 29.624 98.3597 30.68C98.9677 31.72 99.2717 32.928 99.2717 34.304C99.2717 35.68 98.9597 36.896 98.3357 37.952C97.7277 38.992 96.8877 39.792 95.8157 40.352C94.7597 40.912 93.5757 41.192 92.2637 41.192ZM92.2637 37.64C93.0477 37.64 93.7117 37.352 94.2557 36.776C94.8157 36.2 95.0957 35.376 95.0957 34.304C95.0957 33.232 94.8237 32.408 94.2797 31.832C93.7517 31.256 93.0957 30.968 92.3117 30.968C91.5117 30.968 90.8477 31.256 90.3197 31.832C89.7917 32.392 89.5277 33.216 89.5277 34.304C89.5277 35.376 89.7837 36.2 90.2957 36.776C90.8237 37.352 91.4797 37.64 92.2637 37.64ZM120.673 27.608L117.049 41H112.513L110.401 32.312L108.217 41H103.705L100.057 27.608H104.161L106.057 37.184L108.313 27.608H112.657L114.937 37.136L116.809 27.608H120.673ZM130.398 27.464C131.966 27.464 133.214 27.976 134.142 29C135.086 30.008 135.558 31.4 135.558 33.176V41H131.478V33.728C131.478 32.832 131.246 32.136 130.782 31.64C130.318 31.144 129.694 30.896 128.91 30.896C128.126 30.896 127.502 31.144 127.038 31.64C126.574 32.136 126.342 32.832 126.342 33.728V41H122.238V27.608H126.342V29.384C126.758 28.792 127.318 28.328 128.022 27.992C128.726 27.64 129.518 27.464 130.398 27.464ZM142.514 23.24V41H138.41V23.24H142.514ZM151.584 41.192C150.272 41.192 149.088 40.912 148.032 40.352C146.992 39.792 146.168 38.992 145.56 37.952C144.968 36.912 144.672 35.696 144.672 34.304C144.672 32.928 144.976 31.72 145.584 30.68C146.192 29.624 147.024 28.816 148.08 28.256C149.136 27.696 150.32 27.416 151.632 27.416C152.944 27.416 154.128 27.696 155.184 28.256C156.24 28.816 157.072 29.624 157.68 30.68C158.288 31.72 158.592 32.928 158.592 34.304C158.592 35.68 158.28 36.896 157.656 37.952C157.048 38.992 156.208 39.792 155.136 40.352C154.08 40.912 152.896 41.192 151.584 41.192ZM151.584 37.64C152.368 37.64 153.032 37.352 153.576 36.776C154.136 36.2 154.416 35.376 154.416 34.304C154.416 33.232 154.144 32.408 153.6 31.832C153.072 31.256 152.416 30.968 151.632 30.968C150.832 30.968 150.168 31.256 149.64 31.832C149.112 32.392 148.848 33.216 148.848 34.304C148.848 35.376 149.104 36.2 149.616 36.776C150.144 37.352 150.8 37.64 151.584 37.64ZM159.953 34.28C159.953 32.904 160.209 31.696 160.721 30.656C161.249 29.616 161.961 28.816 162.857 28.256C163.753 27.696 164.753 27.416 165.857 27.416C166.801 27.416 167.625 27.608 168.329 27.992C169.049 28.376 169.601 28.88 169.985 29.504V27.608H174.089V41H169.985V39.104C169.585 39.728 169.025 40.232 168.305 40.616C167.601 41 166.777 41.192 165.833 41.192C164.745 41.192 163.753 40.912 162.857 40.352C161.961 39.776 161.249 38.968 160.721 37.928C160.209 36.872 159.953 35.656 159.953 34.28ZM169.985 34.304C169.985 33.28 169.697 32.472 169.121 31.88C168.561 31.288 167.873 30.992 167.057 30.992C166.241 30.992 165.545 31.288 164.969 31.88C164.409 32.456 164.129 33.256 164.129 34.28C164.129 35.304 164.409 36.12 164.969 36.728C165.545 37.32 166.241 37.616 167.057 37.616C167.873 37.616 168.561 37.32 169.121 36.728C169.697 36.136 169.985 35.328 169.985 34.304ZM176.242 34.28C176.242 32.904 176.498 31.696 177.01 30.656C177.538 29.616 178.25 28.816 179.146 28.256C180.042 27.696 181.042 27.416 182.146 27.416C183.026 27.416 183.826 27.6 184.546 27.968C185.282 28.336 185.858 28.832 186.274 29.456V23.24H190.378V41H186.274V39.08C185.89 39.72 185.338 40.232 184.618 40.616C183.914 41 183.09 41.192 182.146 41.192C181.042 41.192 180.042 40.912 179.146 40.352C178.25 39.776 177.538 38.968 177.01 37.928C176.498 36.872 176.242 35.656 176.242 34.28ZM186.274 34.304C186.274 33.28 185.986 32.472 185.41 31.88C184.85 31.288 184.162 30.992 183.346 30.992C182.53 30.992 181.834 31.288 181.258 31.88C180.698 32.456 180.418 33.256 180.418 34.28C180.418 35.304 180.698 36.12 181.258 36.728C181.834 37.32 182.53 37.616 183.346 37.616C184.162 37.616 184.85 37.32 185.41 36.728C185.986 36.136 186.274 35.328 186.274 34.304ZM197.737 32.552C197.737 30.888 198.097 29.408 198.817 28.112C199.537 26.8 200.537 25.784 201.817 25.064C203.113 24.328 204.577 23.96 206.209 23.96C208.209 23.96 209.921 24.488 211.345 25.544C212.769 26.6 213.721 28.04 214.201 29.864H209.689C209.353 29.16 208.873 28.624 208.249 28.256C207.641 27.888 206.945 27.704 206.161 27.704C204.897 27.704 203.873 28.144 203.089 29.024C202.305 29.904 201.913 31.08 201.913 32.552C201.913 34.024 202.305 35.2 203.089 36.08C203.873 36.96 204.897 37.4 206.161 37.4C206.945 37.4 207.641 37.216 208.249 36.848C208.873 36.48 209.353 35.944 209.689 35.24H214.201C213.721 37.064 212.769 38.504 211.345 39.56C209.921 40.6 208.209 41.12 206.209 41.12C204.577 41.12 203.113 40.76 201.817 40.04C200.537 39.304 199.537 38.288 198.817 36.992C198.097 35.696 197.737 34.216 197.737 32.552ZM232.531 24.152L226.555 41H221.419L215.443 24.152H219.811L223.987 36.872L228.187 24.152H232.531Z" fill="white"/>
</svg>
