<svg width="32" height="32" viewBox="0 0 32 32" fill="none" xmlns="http://www.w3.org/2000/svg">
<circle cx="16.5" cy="15.5" r="13.5" fill="white"/>
<path d="M15.9994 0C7.16343 0 0 7.16364 0 15.9999C0 24.836 7.16343 31.9999 15.9994 31.9999C24.836 31.9999 32 24.8359 32 15.9999C32 7.16364 24.836 0 15.9994 0ZM22.5014 23.161V24.2676C22.5014 24.8787 22.0059 25.3742 21.3948 25.3742H20.2882H14.1808H10.3286C9.10639 25.3742 8.11534 24.3832 8.11534 23.1609V9.23653C8.11534 8.01432 9.10629 7.02326 10.3286 7.02326H14.1807H20.2881H21.3947C22.0058 7.02326 22.5013 7.51874 22.5013 8.12984V9.23653H22.5014V23.161ZM24.7145 9.23653V23.161V24.2676C24.7145 24.8787 24.2191 25.3742 23.608 25.3742H23.3087C23.4979 25.0483 23.608 24.6709 23.608 24.2676V23.161V9.23653V8.13006C23.608 7.72674 23.4979 7.34935 23.3087 7.02348H23.608C24.2191 7.02348 24.7145 7.51895 24.7145 8.13006V9.23653Z" fill="black"/>
<path d="M18.73 17.6554C18.73 17.6554 18.3131 17.1549 17.8514 17.5002C17.5073 17.7574 16.8889 18.3296 16.7403 18.4685C16.7403 18.4685 15.7067 17.9174 15.0951 17.4142C14.189 16.6691 13.5832 15.7493 13.2656 15.2261L13.0285 14.779C13.1112 14.69 13.7442 14.0122 14.018 13.6442C14.3628 13.1828 13.8632 12.7658 13.8632 12.7658C13.8632 12.7658 12.457 11.3596 12.1368 11.0806C11.8165 10.801 11.4477 10.9562 11.4477 10.9562C10.774 11.3916 10.076 11.7698 10.0345 13.5894C10.0331 15.2928 11.3262 17.0495 12.7242 18.4095C14.1248 19.9457 16.0482 21.4851 17.907 21.4834C19.7262 21.4424 20.1041 20.7442 20.5393 20.0705C20.5393 20.0705 20.6951 19.702 20.4157 19.3817C20.1362 19.0608 18.73 17.6554 18.73 17.6554Z" fill="black"/>
</svg>
