<svg width="50" height="50" viewBox="0 0 50 50" fill="none" xmlns="http://www.w3.org/2000/svg">
<circle cx="25.5" cy="24.5" r="22.5" fill="white"/>
<g clip-path="url(#clip0)">
<path d="M24.4635 19.3875C22.016 15.0585 19.4 11.408 18.873 10.6835C14.665 12.6915 11.5135 16.5655 10.503 21.2275C10.545 21.2275 10.595 21.2275 10.6525 21.2275C12.0605 21.2275 17.8945 21.1145 24.4635 19.3875Z" fill="black"/>
<path d="M35.505 12.992C32.814 10.633 29.291 9.19998 25.4375 9.19998C24.2525 9.19998 23.0995 9.33648 21.991 9.59448C22.612 10.4335 25.2265 14.0445 27.6125 18.41C32.7695 16.46 35.0795 13.574 35.505 12.992Z" fill="black"/>
<path d="M29.8565 22.994C29.9605 23.238 30.0615 23.4815 30.161 23.7235C31.3435 23.578 32.5235 23.5215 33.6445 23.5215C37.12 23.5215 40.0285 24.0655 40.715 24.204C40.6565 20.6875 39.4015 17.457 37.3385 14.9005C36.805 15.592 34.224 18.6495 28.876 20.8525C29.2195 21.5575 29.549 22.2735 29.8565 22.994Z" fill="black"/>
<path d="M26.4845 24.509C26.6525 24.455 26.8225 24.4055 26.9925 24.3555C26.6285 23.539 26.2365 22.7215 25.8245 21.916C19.042 23.9295 12.459 24.087 10.5635 24.087C10.3885 24.087 10.255 24.086 10.163 24.084C10.16 24.21 10.1565 24.336 10.1565 24.461C10.157 28.337 11.6115 31.878 14.003 34.5725C14.6485 33.506 18.8475 26.9755 26.4845 24.509Z" fill="black"/>
<path d="M25.4375 0C11.941 0 1 10.9415 1 24.4375C1 37.9335 11.941 48.875 25.4375 48.875C38.934 48.875 49.875 37.9335 49.875 24.4375C49.875 10.9415 38.934 0 25.4375 0ZM25.4375 42.502C15.4635 42.502 7.3495 34.3985 7.349 24.4375C7.35 14.4765 15.4635 6.374 25.4375 6.373C35.4115 6.374 43.525 14.4765 43.5255 24.4375C43.525 34.3985 35.4115 42.502 25.4375 42.502Z" fill="black"/>
<path d="M31.1635 26.3155C33.064 31.5575 33.8875 35.8565 34.0915 37.0315C37.4375 34.7275 39.822 31.126 40.5115 26.961C39.9315 26.784 37.433 26.085 34.24 26.085C33.2675 26.085 32.23 26.1515 31.1635 26.3155Z" fill="black"/>
<path d="M28.092 27.0715C19.721 29.9845 16.553 35.6895 16.117 36.546C18.699 38.5355 21.931 39.722 25.438 39.722C27.5295 39.722 29.524 39.3 31.341 38.537C31.096 37.1155 30.2065 32.5305 28.109 27.0655C28.103 27.0675 28.0975 27.0695 28.092 27.0715Z" fill="black"/>
</g>
<defs>
<clipPath id="clip0">
<rect width="48.875" height="48.875" fill="white" transform="translate(1)"/>
</clipPath>
</defs>
</svg>
