<svg width="50" height="50" viewBox="0 0 50 50" fill="none" xmlns="http://www.w3.org/2000/svg">
<circle cx="24.5" cy="24.5" r="22.5" fill="white"/>
<g clip-path="url(#clip0)">
<path d="M24.4375 0C10.941 0 0 10.941 0 24.4375C0 37.934 10.941 48.875 24.4375 48.875C37.934 48.875 48.875 37.934 48.875 24.4375C48.875 10.941 37.934 0 24.4375 0ZM33.7605 12.445L30.3805 12.4465C27.73 12.4465 27.2175 13.706 27.2175 15.554V19.629H33.538L33.535 26.0115H27.218V42.3905H20.6255V26.0115H15.1145V19.629H20.6255V14.922C20.6255 9.4595 23.963 6.4845 28.8355 6.4845L33.761 6.492V12.445H33.7605Z" fill="black"/>
</g>
<defs>
<clipPath id="clip0">
<rect width="48.875" height="48.875" fill="white"/>
</clipPath>
</defs>
</svg>
