<svg width="32" height="32" viewBox="0 0 32 32" fill="none" xmlns="http://www.w3.org/2000/svg">
<ellipse cx="15.5" cy="16.5" rx="13.5" ry="13.5" fill="white"/>
<path d="M15.9997 0C7.16343 0 0 7.16364 0 15.9999C0 24.836 7.16343 32.0002 15.9997 32.0002C24.836 32.0002 32 24.836 32 15.9999C32 7.16364 24.836 0 15.9997 0ZM15.4982 10.6838H27.4305C27.5119 10.6838 27.5908 10.6935 27.6679 10.7076L20.9853 14.5495L15.3357 10.7001C15.3895 10.6935 15.4423 10.6838 15.4982 10.6838ZM6.46101 19.7667V18.1072H11.786L11.721 18.6455L11.7091 18.7448V18.8447C11.7091 19.1667 11.7625 19.4763 11.8582 19.7667H6.46101ZM11.978 16.5168H4.66269V14.8568H12.1791L11.978 16.5168ZM12.541 11.8635L12.4381 12.7131H3.04901V11.0531H12.6901C12.6049 11.3098 12.5523 11.5813 12.541 11.8635ZM26.6003 20.1445H14.6682C14.3111 20.1445 13.9879 20.0004 13.753 19.7672C13.753 19.7672 13.753 19.7672 13.753 19.7668C13.6955 19.7096 13.6434 19.6465 13.5972 19.5793C13.5962 19.5776 13.5941 19.576 13.5931 19.5743C13.5502 19.5109 13.5145 19.4429 13.483 19.3726C13.4799 19.3657 13.4752 19.3596 13.4719 19.3524C13.4436 19.2861 13.4238 19.2155 13.4069 19.1438C13.4039 19.1313 13.3981 19.12 13.3956 19.1075C13.3782 19.0223 13.3691 18.9346 13.3691 18.8447L13.8112 15.1903L13.8516 14.8565L14.1992 11.9828C14.1992 11.9007 14.2091 11.8212 14.2238 11.7436C14.2255 11.7352 14.2247 11.7262 14.2266 11.7178C14.2276 11.7184 14.2285 11.7192 14.2297 11.7201C14.267 11.5428 14.3376 11.3781 14.4385 11.2351V11.8623L20.5977 16.0364C20.606 16.0422 20.6151 16.0453 20.6237 16.0503C20.6326 16.0558 20.6417 16.0602 20.6511 16.0652C20.6998 16.0901 20.7496 16.11 20.8006 16.1234C20.8061 16.1248 20.8111 16.1256 20.8166 16.1267C20.8725 16.1399 20.9292 16.148 20.9853 16.148H20.9858C20.9864 16.148 20.9867 16.148 20.9869 16.148C21.0431 16.148 21.0998 16.14 21.1557 16.1267C21.1612 16.1256 21.1662 16.1248 21.1717 16.1234C21.2225 16.1101 21.2724 16.0902 21.3211 16.0652C21.3303 16.0602 21.3393 16.0558 21.3485 16.0503C21.357 16.0453 21.3659 16.0423 21.3745 16.0364L28.7125 11.8C28.721 11.8603 28.7307 11.9203 28.7307 11.9831L27.9007 18.845C27.9 19.563 27.3182 20.1445 26.6003 20.1445Z" fill="black"/>
</svg>
