<svg width="50" height="50" viewBox="0 0 50 50" fill="none" xmlns="http://www.w3.org/2000/svg">
<circle cx="25.5" cy="24.5" r="22.5" fill="white"/>
<g clip-path="url(#clip0)">
<path d="M25.4375 0C11.941 0 1 10.941 1 24.4375C1 37.934 11.941 48.875 25.4375 48.875C38.934 48.875 49.875 37.934 49.875 24.4375C49.875 10.941 38.934 0 25.4375 0ZM40.215 17.9205C40.2265 18.209 40.2325 18.498 40.2325 18.7885C40.2325 29.2275 32.289 40.025 18.996 40.025C14.9325 40.025 10.976 38.8655 7.5545 36.671C7.483 36.6255 7.4535 36.537 7.482 36.4575C7.5105 36.3785 7.591 36.3295 7.6735 36.339C8.2475 36.4075 8.8345 36.4415 9.417 36.4415C12.5785 36.4415 15.5715 35.464 18.103 33.6095C15.0685 33.3535 12.4605 31.3 11.5225 28.3705C11.503 28.3095 11.517 28.243 11.559 28.195C11.6015 28.147 11.6665 28.126 11.7285 28.1375C12.5695 28.297 13.4245 28.3075 14.2485 28.1735C11.119 27.201 8.9195 24.2695 8.9195 20.932L8.9205 20.835C8.922 20.7715 8.9565 20.7135 9.0115 20.682C9.066 20.65 9.134 20.6495 9.189 20.6805C10.005 21.1335 10.908 21.4245 11.8345 21.536C10.036 20.1025 8.98 17.9295 8.98 15.605C8.98 14.264 9.335 12.946 10.007 11.7935C10.037 11.742 10.09 11.709 10.149 11.7045C10.2085 11.6985 10.266 11.7245 10.3035 11.7705C13.9845 16.2855 19.399 19.0655 25.189 19.423C25.0925 18.937 25.0435 18.436 25.0435 17.9305C25.0435 13.75 28.4445 10.3495 32.6245 10.3495C34.6795 10.3495 36.6655 11.194 38.089 12.67C39.6935 12.343 41.222 11.753 42.634 10.916C42.6985 10.8775 42.7795 10.8835 42.839 10.93C42.897 10.977 42.921 11.055 42.898 11.127C42.4195 12.6235 41.4865 13.929 40.233 14.8715C41.4135 14.666 42.559 14.319 43.6485 13.8355C43.7215 13.802 43.808 13.823 43.8605 13.8845C43.9125 13.9465 43.917 14.035 43.872 14.102C42.8795 15.5875 41.6495 16.872 40.215 17.9205Z" fill="black"/>
</g>
<defs>
<clipPath id="clip0">
<rect width="48.875" height="48.875" fill="white" transform="translate(1)"/>
</clipPath>
</defs>
</svg>
